<svg xmlns="http://www.w3.org/2000/svg" viewBox="0 0 256 256" width="256" height="256" role="img" aria-labelledby="t-flower_crown_red_panda">
  <title id="t-flower_crown_red_panda">Red panda — Flower crown</title>
  <path d="M78 208C40 208 18 184 18 154" fill="none" stroke="#C9552E" stroke-width="34" stroke-linecap="round"/>
  <path d="M78 208C40 208 18 184 18 154" fill="none" stroke="#FFF4E8" stroke-width="34" stroke-dasharray="13 25" stroke-dashoffset="20"/>
  <ellipse cx="62" cy="78" rx="36" ry="34" fill="#C9552E"/>
  <ellipse cx="62" cy="82" rx="23" ry="21" fill="#FFF4E8"/>
  <ellipse cx="194" cy="78" rx="36" ry="34" fill="#C9552E"/>
  <ellipse cx="194" cy="82" rx="23" ry="21" fill="#FFF4E8"/>
  <ellipse cx="128" cy="140" rx="86" ry="78" fill="#E97A4E"/>
  <defs><clipPath id="clip-red_panda"><ellipse cx="128" cy="140" rx="86" ry="78"/></clipPath></defs>
  <g clip-path="url(#clip-red_panda)">
    <ellipse cx="92" cy="116" rx="30" ry="24" fill="#FFF4E8"/>
    <ellipse cx="164" cy="116" rx="30" ry="24" fill="#FFF4E8"/>
    <ellipse cx="78" cy="176" rx="32" ry="26" fill="#FFF4E8"/>
    <ellipse cx="178" cy="176" rx="32" ry="26" fill="#FFF4E8"/>
    <ellipse cx="128" cy="174" rx="32" ry="28" fill="#FFF4E8"/>
  </g>
  <ellipse cx="94" cy="118" rx="11" ry="13" fill="#4A2E24"/><circle cx="90" cy="113" r="3.96" fill="#FFFFFF" opacity="0.95"/><ellipse cx="162" cy="118" rx="11" ry="13" fill="#4A2E24"/><circle cx="158" cy="113" r="3.96" fill="#FFFFFF" opacity="0.95"/>
  <ellipse cx="72" cy="182" rx="13" ry="8" fill="#F4737F" opacity="0.32"/><ellipse cx="184" cy="182" rx="13" ry="8" fill="#F4737F" opacity="0.32"/>
  <path d="M114 158a14 8 0 0 1 28 0c0 6-6 12-14 17-8-5-14-11-14-17z" fill="#4A2E24"/>
  <path d="M112 183q8 11 16 0 q8 11 16 0" fill="none" stroke="#4A2E24" stroke-width="5" stroke-linecap="round" stroke-linejoin="round"/>
  <circle cx="70" cy="85" r="6" fill="#FFC2D1"/><circle cx="79" cy="91" r="6" fill="#FFC2D1"/><circle cx="75" cy="101" r="6" fill="#FFC2D1"/><circle cx="65" cy="101" r="6" fill="#FFC2D1"/><circle cx="62" cy="91" r="6" fill="#FFC2D1"/><circle cx="70.151741952008" cy="93.97954108167218" r="4" fill="#FFD86B"/><circle cx="96" cy="68" r="6" fill="#FFFFFF"/><circle cx="105" cy="74" r="6" fill="#FFFFFF"/><circle cx="102" cy="84" r="6" fill="#FFFFFF"/><circle cx="91" cy="84" r="6" fill="#FFFFFF"/><circle cx="88" cy="74" r="6" fill="#FFFFFF"/><circle cx="96.46202996987246" cy="76.75670127108651" r="4" fill="#FFD86B"/><circle cx="128" cy="62" r="6" fill="#FFC2D1"/><circle cx="137" cy="68" r="6" fill="#FFC2D1"/><circle cx="133" cy="78" r="6" fill="#FFC2D1"/><circle cx="123" cy="78" r="6" fill="#FFC2D1"/><circle cx="119" cy="68" r="6" fill="#FFC2D1"/><circle cx="128.0" cy="70.68" r="4" fill="#FFD86B"/><circle cx="160" cy="68" r="6" fill="#FFFFFF"/><circle cx="168" cy="74" r="6" fill="#FFFFFF"/><circle cx="165" cy="84" r="6" fill="#FFFFFF"/><circle cx="154" cy="84" r="6" fill="#FFFFFF"/><circle cx="151" cy="74" r="6" fill="#FFFFFF"/><circle cx="159.53797003012755" cy="76.75670127108651" r="4" fill="#FFD86B"/><circle cx="186" cy="85" r="6" fill="#FFC2D1"/><circle cx="194" cy="91" r="6" fill="#FFC2D1"/><circle cx="191" cy="101" r="6" fill="#FFC2D1"/><circle cx="181" cy="101" r="6" fill="#FFC2D1"/><circle cx="177" cy="91" r="6" fill="#FFC2D1"/><circle cx="185.848258047992" cy="93.97954108167218" r="4" fill="#FFD86B"/>
</svg>
